<svg width="73" height="11" viewBox="0 0 73 11" fill="none" xmlns="http://www.w3.org/2000/svg">
<g clip-path="url(#clip0_37_35929)">
<path d="M46.5461 0.179698C41.348 0.340543 36.1533 0.610321 30.9671 0.989031C26.2609 1.07243 21.5538 1.15583 16.8476 1.23924C11.6835 1.33115 6.51946 1.42221 1.35623 1.51412C0.856677 1.52263 0.0830871 1.88943 0.00649407 2.44345C-0.0777583 3.05449 0.67796 3.15661 1.10348 3.14981C4.4591 3.09023 7.81473 3.03066 11.1704 2.97109C9.77381 3.14896 8.37897 3.33363 6.98412 3.52681C6.50073 3.59405 5.82586 3.82042 5.67183 4.34891C5.53396 4.82039 5.96458 5.15484 6.42159 5.16335C14.1711 5.29611 21.9215 5.42973 29.671 5.56249C31.3203 5.59057 32.9696 5.61951 34.6189 5.64759C32.2462 5.90716 29.8769 6.20587 27.5145 6.54373C23.8099 7.07478 20.1207 7.70454 16.4476 8.42196C16.051 8.49941 15.4885 8.84663 15.4281 9.29172C15.3694 9.71724 15.8383 9.99552 16.2144 9.99893C25.0277 10.0755 33.8411 10.153 42.6544 10.2296C45.1394 10.2508 47.6235 10.273 50.1086 10.2942C50.6779 10.2993 51.4081 10.1368 51.6949 9.57767C51.9511 9.07726 51.4711 8.6611 50.9817 8.65685C42.4978 8.58281 34.0138 8.50877 25.5299 8.43473C25.7664 8.39898 26.0022 8.36239 26.2388 8.3275C29.4446 7.85262 32.6615 7.45008 35.8852 7.12073C42.3361 6.46203 48.8158 6.09523 55.2999 6.0229C55.5867 6.01949 55.8769 6.01779 56.1662 6.01609C59.4529 6.07226 62.7388 6.12928 66.0255 6.18544C66.5939 6.19481 67.3267 6.0246 67.6118 5.46887C67.8739 4.95825 67.3837 4.56763 66.8986 4.54806C63.5447 4.41359 60.1874 4.35572 56.8309 4.3753C52.437 4.29955 48.0431 4.22466 43.6492 4.14892C35.8997 4.01616 28.1493 3.88255 20.3998 3.74979C19.7752 3.73872 19.1497 3.72851 18.525 3.71745C22.5827 3.28597 26.6473 2.92088 30.7169 2.62387C39.2009 2.47323 47.6857 2.32345 56.1696 2.17282C61.3337 2.08091 66.4978 1.98985 71.661 1.89794C72.135 1.88943 72.8312 1.56433 72.9733 1.07584C73.1129 0.598406 72.6788 0.278418 72.2235 0.261397C63.6681 -0.0568898 55.1024 -0.0849739 46.5461 0.179698Z" fill="black"/>
</g>
<defs>
<clipPath id="clip0_37_35929">
<rect width="73" height="10.295" fill="white"/>
</clipPath>
</defs>
</svg>
