<svg width="96" height="96" viewBox="0 0 96 96" fill="none" xmlns="http://www.w3.org/2000/svg">
<path fill-rule="evenodd" clip-rule="evenodd" d="M25.0897 43.9209C25.6304 43.2489 26.4868 42.5074 27.6598 41.6975C28.32 41.2457 28.9794 40.7929 29.6396 40.3411C30.3543 39.8479 31.0322 39.5002 31.6717 39.2959C43.8065 33.4702 55.7494 33.8419 67.5018 40.4125C77.9665 46.9172 83.9748 56.2743 85.5269 68.4842C85.6635 69.9325 85.6722 71.3814 85.5532 72.8311C85.5326 72.9626 85.5879 73.0386 85.7194 73.0592C88.0146 62.1619 85.8769 52.1652 79.3063 43.0691C73.0687 35.2419 65.1067 30.1909 55.4204 27.916C43.4074 25.7469 32.7788 28.6946 23.5348 36.7592C14.594 44.9974 10.8221 55.1126 12.2182 67.1037C12.3476 68.2416 12.6152 69.3271 13.0211 70.3603C13.414 59.91 17.4372 51.0974 25.0897 43.9209Z" fill="#FEB505"/>
<path fill-rule="evenodd" clip-rule="evenodd" d="M64.7074 0.756836C64.6331 0.770205 64.5729 0.810313 64.5267 0.877279C64.4484 1.86732 64.2477 2.83086 63.9245 3.7679C63.3571 4.88658 62.4538 5.58912 61.2146 5.87565C60.3409 6.08811 59.4577 6.24878 58.5648 6.35742C59.4577 6.46606 60.3409 6.62673 61.2146 6.83919C62.7551 7.16668 63.7187 8.09011 64.1052 9.60938C64.3015 10.3813 64.4421 11.1642 64.5267 11.958C64.6607 10.9265 64.9016 9.92277 65.2494 8.94694C65.7846 7.93016 66.6076 7.26773 67.7185 6.95964C68.7554 6.71213 69.7991 6.51135 70.85 6.35742C69.2332 6.29118 67.7075 5.88974 66.2732 5.153C65.7288 4.72711 65.3474 4.18512 65.1289 3.52702C64.8578 2.62273 64.7173 1.6993 64.7074 0.756836Z" fill="#FEB30A"/>
<path fill-rule="evenodd" clip-rule="evenodd" d="M56.7503 12.0469C56.8307 12.0469 56.8708 12.0068 56.8708 11.9264C57.0766 11.6478 57.3577 11.4672 57.7139 11.3844C56.9711 11.1234 56.4693 10.6217 56.2083 9.87891C55.9744 10.6348 55.4725 11.0966 54.7028 11.264C55.4424 11.5219 55.9442 12.0236 56.2083 12.7695C56.3064 12.4471 56.487 12.2062 56.7503 12.0469Z" fill="#FEB503"/>
<path fill-rule="evenodd" clip-rule="evenodd" d="M56.7503 12.0475C56.487 12.2069 56.3064 12.4478 56.2083 12.7702C55.9442 12.0243 55.4424 11.5225 54.7028 11.2646C55.4725 11.0972 55.9744 10.6355 56.2083 9.87956C56.4693 10.6223 56.9711 11.1241 57.7139 11.3851C57.3577 11.4678 57.0766 11.6485 56.8708 11.9271C57.3686 11.6875 57.8906 11.5069 58.4365 11.3851C57.0205 11.1732 56.2777 10.3502 56.2083 8.91602C56.1343 10.4754 55.3113 11.2583 53.7393 11.2646C55.2303 11.3506 56.0533 12.1335 56.2083 13.6133C56.2973 13.0548 56.478 12.5328 56.7503 12.0475Z" fill="#FEA91A"/>
<path fill-rule="evenodd" clip-rule="evenodd" d="M33.8658 16.7444C33.9548 16.7286 34.0351 16.7487 34.1067 16.8046C33.495 16.8614 32.9931 17.1224 32.6012 17.5875C32.5767 17.9682 32.7574 18.2292 33.1431 18.3703C33.1157 18.4184 33.0755 18.4384 33.0227 18.4306C33.4533 18.6458 33.8948 18.8667 34.3476 19.093C34.2372 19.1265 34.157 19.1867 34.1067 19.2737C34.1594 19.2658 34.1997 19.2858 34.2271 19.3339C33.4327 19.8872 32.8105 20.5897 32.3603 21.4416C32.2772 21.5907 32.2169 21.5907 32.1796 21.4416C31.7178 22.3407 31.4367 23.3043 31.3365 24.3323C31.4362 25.0147 31.5164 25.7172 31.5774 26.44C31.5757 26.6068 31.5355 26.7473 31.4569 26.8616C31.4362 26.981 31.4765 27.0612 31.5774 27.1024C31.8331 27.8114 32.1542 28.5741 32.5409 29.3909C32.526 29.464 32.4859 29.5041 32.4205 29.5113C32.6914 30.0237 33.0125 30.5054 33.384 30.9566C32.3557 32.7652 32.717 34.2306 34.468 35.3528C35.6453 35.9335 36.8095 35.9134 37.9609 35.2925C38.9102 35.807 39.9138 36.1884 40.9719 36.4368C42.317 36.7692 43.682 36.9698 45.067 37.039C43.418 37.4685 41.8522 38.1108 40.3697 38.966C38.0733 40.5546 35.7849 42.1404 33.5045 43.7235C33.1103 44.042 32.6686 44.303 32.1796 44.5064C31.4971 44.5465 30.8146 44.5867 30.1321 44.6269C29.903 44.6508 29.7223 44.7513 29.5901 44.928C29.55 44.8879 29.5098 44.8476 29.4696 44.8075C29.2507 45.1587 29.2307 45.5201 29.4094 45.8915C29.7334 46.2372 30.0145 46.6186 30.2525 47.0357C30.9287 47.4222 31.6513 47.5427 32.4205 47.397C35.9383 46.3317 39.3909 45.1273 42.7786 43.7838C42.1355 46.4365 41.5534 49.1064 41.0321 51.7932C40.8645 52.4455 41.0049 53.0076 41.4537 53.4794C40.3478 56.9001 39.2236 60.3126 38.0813 63.717C37.1592 63.8545 36.4365 64.3162 35.9133 65.1021C33.8281 65.4666 31.7806 65.9282 29.7708 66.4872C29.8235 66.4794 29.8637 66.4994 29.8912 66.5474C29.0293 66.8079 28.1662 67.0688 27.3017 67.3303C27.2095 67.3219 27.1493 67.2818 27.121 67.2099C26.0398 67.543 24.9959 67.9444 23.9895 68.4143C23.256 68.8008 22.4931 69.1621 21.7011 69.4983C21.6008 69.6187 21.5003 69.7392 21.4 69.8596C21.2736 69.7371 21.1331 69.717 20.9784 69.7994C20.3425 70.1375 19.7005 70.4386 19.0513 70.7027C18.7105 70.7724 18.4299 70.933 18.2083 71.1845C17.2857 71.8433 16.3426 72.4857 15.3778 73.1116C15.3574 73.1517 15.3381 73.1919 15.3176 73.232C15.4176 73.2721 15.5188 73.3123 15.6187 73.3524C15.8632 73.2437 16.0836 73.2437 16.2812 73.3524C22.8095 71.2181 29.4741 69.7728 36.2747 69.0165C37.1076 68.8126 38.1916 68.672 39.5266 68.595C40.2311 68.4964 40.9135 68.5164 41.5741 68.6552C42.0802 68.6934 42.562 68.6531 43.0194 68.5347C42.616 68.5546 42.2145 68.5345 41.815 68.4745C44.5034 68.3158 47.1933 68.2757 49.8847 68.3541C48.3382 68.3744 46.8125 68.4346 45.3079 68.5347C48.7652 68.4789 52.2179 68.5592 55.6659 68.7756C57.299 68.7132 58.9451 68.8136 60.6041 69.0767C60.4484 69.1357 60.2877 69.1559 60.1223 69.1369C60.3349 69.2527 60.5758 69.2929 60.845 69.2574C60.9593 69.1789 61.0997 69.1386 61.2665 69.1369C62.1983 69.235 63.1016 69.3955 63.9765 69.6187C66.0021 70.0235 68.0496 70.405 70.1191 70.7629C72.0896 71.2172 74.0569 71.6789 76.0208 72.148C76.9585 72.3524 77.882 72.6134 78.7909 72.9309C78.7635 72.979 78.7232 72.9989 78.6705 72.9911C78.9814 73.1101 79.3026 73.2306 79.634 73.3524C79.6623 73.2805 79.7226 73.2404 79.8147 73.232C80.467 73.4902 81.1294 73.6709 81.802 73.774C81.3744 73.2858 80.8927 72.8643 80.3567 72.5093C78.3017 71.0798 76.0936 69.8954 73.7323 68.9563C70.2565 67.5553 66.6834 66.4713 63.0129 65.7043C62.6115 65.3831 62.2099 65.062 61.8085 64.7408C61.3299 64.4274 60.808 64.2467 60.2428 64.1988C59.8345 58.3488 59.172 52.5274 58.2555 46.7346C57.8143 44.7696 57.3927 42.8024 56.9908 40.8329C57.0206 40.2819 57.1611 39.76 57.4124 39.2672C59.7624 35.7717 61.6694 32.0379 63.1334 28.066C63.068 28.0588 63.0279 28.0186 63.0129 27.9455C63.4952 26.4943 63.977 25.1293 64.4583 23.8505C64.5592 23.8093 64.5994 23.7291 64.5787 23.6096C64.5068 23.5813 64.4667 23.5211 64.4583 23.4289C64.7594 22.4453 65.0605 21.4617 65.3616 20.4781C65.4412 19.8151 65.5415 19.1727 65.6627 18.551C65.3705 17.4457 65.0493 16.3617 64.6991 15.2991C64.707 15.3518 64.687 15.392 64.6389 15.4195C64.2375 14.456 63.8359 14.456 63.4345 15.4195C63.2252 16.6004 62.7836 17.6844 62.1096 18.6714C61.9404 19.7253 61.7396 20.7692 61.5074 21.803C61.1405 22.7682 60.719 23.6916 60.2428 24.5731C59.1566 27.0267 57.8518 29.3552 56.3284 31.5588C55.3191 32.9361 54.0945 34.0803 52.6549 34.9914C52.4258 35.1481 52.1849 35.2285 51.9322 35.2323C53.4029 34.2635 54.6074 33.0391 55.5455 31.5588C55.4801 31.5516 55.44 31.5115 55.425 31.4384C55.8741 30.6064 56.1752 29.723 56.3284 28.7886C57.3632 28.204 57.8651 27.3207 57.8339 26.1389C57.5517 25.134 56.9094 24.4917 55.9068 24.2118C56.0114 22.3416 55.5698 20.6153 54.5819 19.0328C55.2288 18.5019 55.5902 17.8193 55.6659 16.9852C55.6598 16.7925 55.6197 16.6119 55.5455 16.4433C55.2148 16.2325 54.8534 16.112 54.4615 16.0819C53.2571 15.4396 52.0527 14.7972 50.8482 14.1548C46.8148 12.7897 42.9807 13.2113 39.3459 15.4195C39.2901 15.348 39.2699 15.2676 39.2857 15.1786C39.195 14.5123 39.1147 13.8298 39.0448 13.1311C37.618 13.0972 36.6344 13.7797 36.094 15.1786C35.8759 15.7192 35.7554 16.2811 35.7327 16.8648C35.1113 16.6071 34.489 16.5668 33.8658 16.7444Z" fill="#0186CC"/>
<path fill-rule="evenodd" clip-rule="evenodd" d="M39.0453 13.1309C39.1152 13.8295 39.1955 14.5121 39.2862 15.1784C39.3062 14.5347 39.2861 13.8924 39.226 13.2513C39.1799 13.1843 39.1197 13.1442 39.0453 13.1309Z" fill="#035EBB"/>
<path fill-rule="evenodd" clip-rule="evenodd" d="M33.8658 16.7445C32.9696 16.7779 32.5079 17.2196 32.4807 18.0693C32.6167 18.267 32.7974 18.3874 33.0227 18.4307C33.0755 18.4385 33.1157 18.4185 33.1431 18.3704C32.7574 18.2293 32.5767 17.9683 32.6012 17.5876C32.9931 17.1225 33.495 16.8615 34.1067 16.8047C34.0351 16.7488 33.9548 16.7287 33.8658 16.7445Z" fill="#176EC1"/>
<path fill-rule="evenodd" clip-rule="evenodd" d="M65.6632 18.5508C65.542 19.1725 65.4417 19.8148 65.3621 20.4779C65.061 21.4615 64.7599 22.4451 64.4588 23.4287C64.4672 23.5208 64.5073 23.5811 64.5792 23.6094C64.9075 22.4837 65.2487 21.3596 65.603 20.237C65.6631 19.6763 65.6832 19.1143 65.6632 18.5508Z" fill="#0D6AC0"/>
<path fill-rule="evenodd" clip-rule="evenodd" d="M60.2431 24.5732C60.7194 23.6917 61.1409 22.7683 61.5078 21.8031C61.74 20.7693 61.9408 19.7254 62.11 18.6715C62.784 17.6845 63.2255 16.6005 63.4349 15.4196C63.8363 14.4561 64.2379 14.4561 64.6393 15.4196C64.6874 15.3921 64.7073 15.3519 64.6995 15.2991C64.5457 14.567 64.1644 14.4063 63.5553 14.8174C63.2007 15.5924 62.9197 16.3953 62.7122 17.2262C61.9378 18.3052 61.5764 19.5096 61.6282 20.8395C61.164 22.0879 60.7024 23.3324 60.2431 24.5732Z" fill="#146BC0"/>
<path fill-rule="evenodd" clip-rule="evenodd" d="M34.1071 19.2741C33.2488 19.8109 32.6064 20.5336 32.18 21.4421C32.2174 21.5912 32.2776 21.5912 32.3607 21.4421C32.8109 20.5902 33.4331 19.8876 34.2275 19.3343C34.2001 19.2863 34.1599 19.2663 34.1071 19.2741Z" fill="#126ABF"/>
<path fill-rule="evenodd" clip-rule="evenodd" d="M17.6069 26.1387C17.5948 25.074 17.5539 24.0101 17.4864 22.9469C17.5563 21.7212 17.6358 20.4967 17.7273 19.2734C17.5466 19.8172 17.4455 20.4596 17.4262 21.2005C17.4057 21.8831 17.3864 22.5655 17.366 23.248C17.3347 24.4643 17.4153 25.4278 17.6069 26.1387Z" fill="#FEA40F"/>
<path fill-rule="evenodd" clip-rule="evenodd" d="M63.1334 28.0661C63.6473 26.6848 64.089 25.2796 64.4583 23.8506C63.977 25.1294 63.4952 26.4944 63.0129 27.9456C63.0279 28.0187 63.068 28.0589 63.1334 28.0661Z" fill="#0D69BF"/>
<path fill-rule="evenodd" clip-rule="evenodd" d="M31.3365 24.332C31.3217 25.1786 31.3618 26.0217 31.4569 26.8613C31.5355 26.747 31.5757 26.6066 31.5774 26.4398C31.5164 25.717 31.4362 25.0145 31.3365 24.332Z" fill="#0260BB"/>
<path fill-rule="evenodd" clip-rule="evenodd" d="M57.8347 26.1387C57.8659 27.3205 57.364 28.2038 56.3292 28.7884C56.176 29.7228 55.8748 30.6061 55.4258 31.4382C55.4408 31.5113 55.4809 31.5514 55.5463 31.5586C56.0023 30.7325 56.3034 29.8493 56.4496 28.9089C57.6084 28.3476 58.07 27.4242 57.8347 26.1387Z" fill="#166FC1"/>
<path fill-rule="evenodd" clip-rule="evenodd" d="M31.5782 27.1025C31.7231 27.9542 32.0042 28.7572 32.4213 29.5114C32.4867 29.5042 32.5268 29.4641 32.5417 29.391C32.155 28.5742 31.8339 27.8115 31.5782 27.1025Z" fill="#0D69C0"/>
<path fill-rule="evenodd" clip-rule="evenodd" d="M33.5049 43.7236C33.0113 43.9101 32.5295 44.1308 32.0596 44.3861C31.2566 44.4262 30.4537 44.4664 29.6507 44.5065C29.2036 44.8146 29.0632 45.2362 29.2292 45.7712C29.2753 45.8381 29.3355 45.8782 29.4098 45.8916C29.2311 45.5202 29.2511 45.1588 29.4701 44.8076C29.5102 44.8477 29.5504 44.888 29.5905 44.9281C29.7227 44.7514 29.9034 44.6509 30.1325 44.627C30.815 44.5868 31.4975 44.5466 32.18 44.5065C32.669 44.3031 33.1107 44.0421 33.5049 43.7236Z" fill="#0E65BD"/>
<path fill-rule="evenodd" clip-rule="evenodd" d="M49.2825 55.7679C48.6803 56.4505 48.0379 57.0928 47.3554 57.695C45.7794 59.7642 44.294 61.8921 42.899 64.0785C46.5932 64.2777 50.327 64.4382 54.1002 64.5603C54.666 64.5855 55.228 64.6055 55.7864 64.6205C54.892 61.0071 53.2459 57.7952 50.8482 54.9851C50.7278 54.9047 50.6073 54.9047 50.4869 54.9851C50.065 55.2286 49.6634 55.4896 49.2825 55.7679Z" fill="#FDFEFE"/>
<path fill-rule="evenodd" clip-rule="evenodd" d="M49.2825 55.7676C48.5197 56.2895 47.8773 56.9319 47.3554 57.6947C48.0379 57.0924 48.6803 56.4501 49.2825 55.7676Z" fill="#0D6CC0"/>
<path fill-rule="evenodd" clip-rule="evenodd" d="M42.8994 64.0781C42.7439 64.2036 42.7439 64.3441 42.8994 64.4997C46.3533 64.4103 49.8061 64.4705 53.2575 64.6803C53.5616 64.68 53.8427 64.6397 54.1006 64.5599C50.3274 64.4379 46.5936 64.2773 42.8994 64.0781Z" fill="#1371C3"/>
<path fill-rule="evenodd" clip-rule="evenodd" d="M29.7712 66.487C28.8782 66.6902 27.995 66.9311 27.1214 67.2097C27.1497 67.2816 27.2099 67.3217 27.3021 67.3301C28.1666 67.0686 29.0297 66.8077 29.8916 66.5472C29.8641 66.4992 29.8239 66.4792 29.7712 66.487Z" fill="#106DC2"/>
<path fill-rule="evenodd" clip-rule="evenodd" d="M43.0203 68.535C43.783 68.535 44.5459 68.535 45.3087 68.535C46.8134 68.4349 48.339 68.3747 49.8855 68.3543C47.1941 68.2759 44.5042 68.316 41.8158 68.4748C42.2153 68.5348 42.6168 68.5549 43.0203 68.535Z" fill="#0162BC"/>
<path fill-rule="evenodd" clip-rule="evenodd" d="M23.9895 68.4141C22.9086 68.7334 21.8648 69.1549 20.858 69.6787C20.2088 69.9622 19.6066 70.3036 19.0514 70.7025C19.7005 70.4383 20.3425 70.1372 20.9784 69.7992C21.1331 69.7168 21.2736 69.7369 21.4 69.8594C21.5003 69.7389 21.6008 69.6185 21.7011 69.498C22.4931 69.1619 23.256 68.8006 23.9895 68.4141Z" fill="#1770C2"/>
<path fill-rule="evenodd" clip-rule="evenodd" d="M41.575 68.6548C40.9143 68.5161 40.2319 68.4961 39.5274 68.5946C38.1924 68.6717 37.1085 68.8123 36.2755 69.0162C38.041 68.8834 39.8076 68.763 41.575 68.6548Z" fill="#0D6DC2"/>
<path fill-rule="evenodd" clip-rule="evenodd" d="M55.6663 68.7758C57.1545 68.8655 58.64 68.9859 60.1227 69.1371C60.2881 69.156 60.4488 69.1359 60.6045 69.0769C58.9455 68.8137 57.2994 68.7134 55.6663 68.7758Z" fill="#0A6AC1"/>
<path fill-rule="evenodd" clip-rule="evenodd" d="M60.8458 69.2572C61.8899 69.3776 62.9337 69.498 63.9773 69.6185C63.1024 69.3953 62.1991 69.2348 61.2673 69.1367C61.1005 69.1384 60.9601 69.1786 60.8458 69.2572Z" fill="#0463BD"/>
<path fill-rule="evenodd" clip-rule="evenodd" d="M76.0216 72.1484C76.8701 72.5018 77.7534 72.7828 78.6713 72.9915C78.7241 72.9994 78.7643 72.9794 78.7917 72.9313C77.8828 72.6138 76.9593 72.3528 76.0216 72.1484Z" fill="#0E6CC0"/>
<path fill-rule="evenodd" clip-rule="evenodd" d="M18.2083 71.1846C16.4871 72.1258 14.8407 73.1898 13.2701 74.3763C14.2674 74.0506 15.2707 73.7094 16.2812 73.3525C16.0836 73.2438 15.8632 73.2438 15.6187 73.3525C15.5188 73.3124 15.4176 73.2722 15.3176 73.2321C15.3381 73.192 15.3574 73.1518 15.3778 73.1117C16.3426 72.4858 17.2857 71.8434 18.2083 71.1846Z" fill="#1775C4"/>
<path fill-rule="evenodd" clip-rule="evenodd" d="M80.3575 72.5098C80.8935 72.8647 81.3752 73.2863 81.8028 73.7744C81.1303 73.6713 80.4678 73.4907 79.8155 73.2324C79.7234 73.2409 79.6632 73.281 79.6348 73.3529C80.9357 73.7665 82.2205 74.188 83.489 74.6175C82.5231 73.7908 81.4792 73.0883 80.3575 72.5098Z" fill="#1772C3"/>
</svg>
