<svg width="89" height="94" viewBox="0 0 89 94" fill="none" xmlns="http://www.w3.org/2000/svg">
<path fill-rule="evenodd" clip-rule="evenodd" d="M66.6909 0.632857C62.0907 -0.302897 58.7113 1.36024 56.5536 5.62226C43.6655 26.2274 30.5775 46.6855 17.2894 66.9975C14.7405 72.8081 16.4718 75.2167 22.4825 74.2219C38.4935 52.7096 53.8831 30.72 68.6496 8.25393C69.3751 5.30813 68.7225 2.76777 66.6909 0.632857Z" fill="#040404"/>
<path fill-rule="evenodd" clip-rule="evenodd" d="M14.0486 15.4283C9.91667 14.5199 7.34585 16.1895 6.33452 20.4371C3.6161 30.2788 1.51694 40.2615 0.0370483 50.3861C0.220148 54.7733 2.22941 56.0569 6.06483 54.2369C9.9242 43.1384 13.3792 31.8989 16.4314 20.5176C16.056 18.5702 15.2617 16.8738 14.0486 15.4283Z" fill="#070707"/>
<path fill-rule="evenodd" clip-rule="evenodd" d="M85.6559 52.3322C82.5631 52.0954 79.863 53.06 77.5548 55.2252C63.912 65.638 50.4976 76.3764 37.3116 87.4385C36.6844 93.2575 38.9612 94.8247 44.1404 92.1407C58.4377 82.7269 72.5178 72.98 86.3793 62.9011C89.7757 59.0139 89.5348 55.4915 85.6559 52.3322Z" fill="#030303"/>
</svg>
