<svg width="249" height="234" viewBox="0 0 249 234" fill="none" xmlns="http://www.w3.org/2000/svg">
<path d="M248.25 232.797L4.87939 230.403V177.423L248.25 158.152V232.797Z" fill="#0A85D1" stroke="black" stroke-width="1.49849"/>
<g clip-path="url(#clip0_2067_312)">
<path fill-rule="evenodd" clip-rule="evenodd" d="M222.012 82.4746C222.012 83.9233 222.012 85.3722 222.012 86.8208C221.712 87.0047 221.447 87.2353 221.222 87.5123C221.538 88.4819 221.372 89.3709 220.728 90.1793C220.001 90.8737 219.309 91.5981 218.653 92.3523C218.865 92.9328 218.898 93.5254 218.752 94.1303C218.071 95.5358 217.05 96.6223 215.69 97.39C211.144 99.9926 206.402 102.166 201.466 103.909C198.882 104.645 196.248 105.106 193.564 105.292C194.539 106.267 195.362 107.353 196.033 108.552C196.428 109.408 196.428 110.264 196.033 111.12C192.133 118.593 188.182 126.034 184.18 133.444C183.225 135.092 182.171 136.673 181.019 138.185C178.772 141.157 175.841 143.099 172.228 144.013C167.094 144.113 162.946 142.138 159.782 138.086C159.618 137.95 159.486 137.983 159.387 138.185C157.087 142.226 154.914 146.341 152.868 150.532C153.49 152.495 154.115 154.457 154.744 156.417C156.272 161.179 157.82 165.934 159.387 170.683C159.364 171.057 159.232 171.386 158.992 171.671C158.296 172.001 157.572 172.232 156.819 172.362C157.813 177.799 158.636 183.264 159.288 188.759C159.58 190.794 159.712 192.835 159.683 194.883C159.585 194.982 159.486 195.081 159.387 195.18C133.705 195.311 108.023 195.311 82.3406 195.18C82.2419 195.081 82.1431 194.982 82.0443 194.883C82.3144 187.732 83.0058 180.62 84.1186 173.547C83.4829 173.113 82.8574 172.652 82.2419 172.164C82.1101 171.572 82.1101 170.979 82.2419 170.386C84.3272 162.506 86.5661 154.669 88.9587 146.877C90.489 141.06 90.0611 135.397 87.6746 129.888C87.5754 129.686 87.4439 129.653 87.2795 129.789C86.9174 130.151 86.5551 130.513 86.193 130.876C83.526 134.596 80.3321 137.79 76.6115 140.457C71.762 142.857 67.0207 142.659 62.3876 139.864C59.5343 137.735 57.3282 135.068 55.7695 131.863C52.2845 124.24 48.992 116.535 45.8918 108.749C45.3363 107.548 45.0727 106.297 45.1016 104.996C45.8438 103.33 46.8973 101.881 48.2624 100.65C48.3942 100.452 48.3942 100.255 48.2624 100.057C45.7492 99.633 43.2797 99.0074 40.8541 98.1802C36.3796 96.0417 31.8358 94.0661 27.2229 92.2536C26.4724 91.701 25.781 91.0754 25.1485 90.3768C24.6889 89.3491 24.8535 88.4273 25.6424 87.611C24.7519 87.067 23.83 86.5731 22.8767 86.1294C22.3748 85.6938 21.9468 85.1999 21.5926 84.6477C21.1436 83.7095 21.3082 82.8865 22.0864 82.1783C21.5926 81.8162 21.0987 81.4538 20.6048 81.0917C19.8313 79.8548 19.9959 78.7683 21.0987 77.8321C22.7776 77.0089 24.5556 76.6138 26.4326 76.6468C25.3323 74.5011 25.9908 73.184 28.4082 72.6957C30.37 72.6751 32.2797 73.0044 34.1373 73.6834C38.9544 75.5744 43.8603 77.1879 48.8551 78.5235C49.8792 78.6588 50.3731 78.2307 50.3368 77.2394C50.091 75.6685 49.9592 74.088 49.9417 72.4981C49.7344 70.2225 50.3929 68.2469 51.9172 66.5715C53.6918 65.412 55.0419 65.7741 55.9671 67.658C56.1735 69.9508 56.6346 72.1897 57.35 74.3749C58.3529 76.5782 59.4065 78.7513 60.5108 80.8942C60.8141 81.7383 61.0776 82.5943 61.3011 83.4624C61.4607 86.9577 61.5924 90.4477 61.6962 93.9328C61.7789 94.1643 61.9105 94.3619 62.0913 94.5255C62.9617 94.1896 63.7519 94.3214 64.4619 94.9206C66.6218 99.9191 68.7619 104.924 70.8825 109.935C74.2707 103.026 77.6621 96.112 81.0565 89.1915C81.8467 87.8744 82.637 86.5575 83.4272 85.2404C85.1657 82.7804 87.5033 81.167 90.4404 80.4003C94.9571 78.8068 99.5008 77.2924 104.072 75.8565C105 74.862 105.988 73.9403 107.035 73.0908C107.465 72.8533 107.926 72.7545 108.418 72.7944C108.48 72.1875 108.415 71.5949 108.22 71.0164C101.967 69.1616 97.6541 65.2105 95.2805 59.1632C93.8215 53.7581 93.8545 48.3581 95.3792 42.9637C95.024 41.9305 94.7277 40.8769 94.4902 39.8028C94.3342 38.6072 94.367 37.4219 94.589 36.2468C93.1253 35.8642 92.862 35.1069 93.7988 33.9749C94.5132 33.6812 95.2376 33.4178 95.9719 33.1847C93.6587 25.0437 95.8318 18.3269 102.491 13.0341C108.101 9.23769 114.291 7.72309 121.061 8.49037C125.597 8.88242 129.745 10.3312 133.507 12.8366C134.698 13.834 135.488 15.0852 135.878 16.5901C137.97 16.4941 139.879 17.0209 141.607 18.1706C143.533 19.8154 144.949 21.8237 145.854 24.196C147.253 28.5009 147.714 32.9129 147.237 37.4321C146.921 39.9433 146.559 42.4457 146.151 44.9392C149.089 44.437 151.558 45.293 153.559 47.5074C155.335 50.4759 155.73 53.6368 154.744 56.9901C152.201 63.8095 147.361 66.5424 140.224 65.1886C136.991 64.0171 135.542 61.7452 135.878 58.3729C135.285 58.1096 134.693 58.1096 134.1 58.3729C133.096 60.3165 131.943 62.1603 130.643 63.9045C130.52 66.0803 130.553 68.2534 130.742 70.4238C131.628 70.4666 132.418 70.763 133.112 71.3128C134.627 72.6957 136.141 74.0785 137.656 75.4614C142.96 76.9879 148.228 78.6343 153.46 80.4003C154.898 80.9212 156.215 81.6457 157.411 82.5734C159.567 84.6797 161.313 87.0834 162.647 89.7841C165.613 96.2436 168.577 102.697 171.537 109.145C173.694 105.291 175.801 101.405 177.858 97.4888C178.704 96.8179 179.626 96.291 180.624 95.9083C180.772 91.6469 182.023 87.7618 184.378 84.2526C186.287 82.4746 188.197 80.6966 190.107 78.9186C191.803 76.7803 193.251 74.4754 194.453 72.0042C196.918 70.5688 198.564 71.2272 199.392 73.9798C199.521 75.5792 199.389 77.1596 198.997 78.7211C198.599 80.2114 198.105 81.6601 197.515 83.0673C198.634 82.9746 199.753 82.8758 200.873 82.771C204.915 81.81 208.932 80.7563 212.924 79.6101C214.745 79.1577 216.589 79.0261 218.456 79.215C220.038 79.4143 220.862 80.3033 220.925 81.882C221.324 82.0248 221.686 82.2223 222.012 82.4746Z" fill="#020202"/>
<path fill-rule="evenodd" clip-rule="evenodd" d="M127.695 21.6318C127.958 21.6318 128.222 21.6318 128.485 21.6318C128.136 24.1013 128.301 26.5379 128.979 28.9414C130.345 32.5955 132.123 36.0197 134.313 39.2142C134.622 39.8792 134.853 40.5706 135.004 41.2885C134.939 41.4531 134.873 41.6179 134.807 41.7824C133.399 41.1376 131.95 40.6107 130.461 40.202C130.178 39.6226 129.783 39.1287 129.275 38.7203C125.817 36.8682 122.13 36.078 118.212 36.3497C116.832 36.6118 115.647 37.2373 114.656 38.2264C113.257 37.3355 111.742 37.0391 110.112 37.3374C109.324 35.9601 108.139 35.1039 106.556 34.7692C103.967 34.0833 101.333 33.787 98.6543 33.8802C99.5245 30.5289 101.237 27.6644 103.791 25.2866C106.054 23.7415 108.557 22.8195 111.298 22.5208C114.92 22.5161 118.542 22.5161 122.163 22.5208C124.051 22.3223 125.895 22.026 127.695 21.6318Z" fill="#FDFDFD"/>
<path fill-rule="evenodd" clip-rule="evenodd" d="M62.1068 24.5947C62.9175 24.6706 63.642 24.9669 64.2799 25.4837C66.7922 27.2704 69.1301 29.2789 71.2931 31.5091C71.9035 33.006 71.4096 33.6317 69.8114 33.3859C66.8588 31.2341 64.1258 28.8307 61.6129 26.1752C61.4189 25.5282 61.5835 25.0015 62.1068 24.5947Z" fill="#040404"/>
<path fill-rule="evenodd" clip-rule="evenodd" d="M104.383 28.7443C105.491 28.7249 106.545 28.9555 107.544 29.4357C108.704 30.3972 108.572 31.0887 107.149 31.5101C105.525 30.6604 103.945 30.7591 102.407 31.8064C101.201 31.9482 100.905 31.4543 101.518 30.3247C102.387 29.6112 103.342 29.0843 104.383 28.7443Z" fill="#0C0C0C"/>
<path fill-rule="evenodd" clip-rule="evenodd" d="M120.977 30.9167C123.76 30.7442 126.032 31.732 127.793 33.88C128.591 35.1884 128.228 35.8139 126.706 35.7568C125.019 33.4009 122.715 32.4462 119.792 32.8922C119.59 32.5106 119.558 32.1155 119.693 31.7069C120.091 31.3616 120.519 31.098 120.977 30.9167Z" fill="#080808"/>
<path fill-rule="evenodd" clip-rule="evenodd" d="M98.8521 35.6582C101.755 35.6543 104.586 36.0822 107.347 36.9423C107.852 37.2495 108.214 37.6776 108.434 38.2264C108.248 40.2198 107.721 42.1293 106.853 43.9555C106.159 45.1108 105.138 45.8023 103.791 46.0299C99.8954 46.5696 97.426 44.9561 96.3827 41.1898C96.2274 39.5262 96.3262 37.8799 96.679 36.2509C97.4343 36.0857 98.1585 35.8882 98.8521 35.6582Z" fill="#FBFCFC"/>
<path fill-rule="evenodd" clip-rule="evenodd" d="M54.9952 36.251C59.0607 36.715 63.0777 37.4723 67.046 38.5229C68.1908 38.6773 68.6189 39.303 68.3301 40.3996C67.6199 40.786 66.8627 40.8848 66.0582 40.696C62.6925 40.0027 59.3341 39.2783 55.983 38.5229C54.5748 38.2287 54.2455 37.4715 54.9952 36.251Z" fill="#040404"/>
<path fill-rule="evenodd" clip-rule="evenodd" d="M103 38.2266C104.287 38.2959 104.946 38.9873 104.976 40.3009C105.043 41.7221 104.418 42.6111 103.099 42.9679C102.815 42.9562 102.552 42.8904 102.309 42.7703C101.259 41.037 101.489 39.5223 103 38.2266Z" fill="#070707"/>
<path fill-rule="evenodd" clip-rule="evenodd" d="M117.817 38.2264C120.626 38.1251 123.392 38.4214 126.114 39.1154C127.202 39.4765 128.091 40.102 128.781 40.9922C128.926 46.9731 126.061 49.5084 120.187 48.598C117.011 47.5192 115.562 45.2803 115.841 41.8812C115.558 40.1071 116.217 38.8888 117.817 38.2264Z" fill="#FCFCFC"/>
<path fill-rule="evenodd" clip-rule="evenodd" d="M110.508 39.4117C111.3 39.3789 112.091 39.4119 112.878 39.5105C113.258 39.5816 113.587 39.7463 113.866 40.0043C114.03 41.3825 114.129 42.7654 114.162 44.153C114.852 47.7402 116.992 49.8803 120.583 50.5735C126.559 51.085 129.918 48.3522 130.658 42.375C132.011 42.7217 133.328 43.1826 134.609 43.7579C134.907 44.9875 135.236 46.2058 135.597 47.4126C135.86 47.5444 136.124 47.5444 136.387 47.4126C137.433 46.363 138.618 45.507 139.943 44.8444C142.506 44.5744 143.757 45.7597 143.697 48.4004C143.622 51.8432 142.239 54.609 139.548 56.6977C138.472 57.2878 137.319 57.5841 136.091 57.5867C135.131 57.4488 134.176 57.35 133.226 57.2904C128.684 66.7007 121.176 71.1785 110.705 70.7241C100.842 68.583 95.9687 62.4588 96.086 52.3515C95.9535 50.1565 96.2168 48.0164 96.8762 45.931C98.9397 47.6653 101.31 48.291 103.988 47.8078C105.026 47.4506 106.014 47.0555 106.952 46.6224C104.165 49.3362 104.494 51.6411 107.939 53.5368C109.107 54.0754 110.293 54.1414 111.495 53.7344C111.879 53.3448 111.945 52.9167 111.693 52.4503C110.366 52.3483 109.115 51.986 107.939 51.3637C107.497 51.0202 107.167 50.5921 106.952 50.0796C107.659 48.8125 108.482 47.6272 109.421 46.5236C110.447 45.0884 111.04 43.508 111.199 41.7823C110.838 41.4714 110.41 41.3068 109.915 41.2884C109.68 40.5373 109.877 39.9117 110.508 39.4117Z" fill="#FDFDFD"/>
<path fill-rule="evenodd" clip-rule="evenodd" d="M121.175 40.3987C122.575 40.3829 123.3 41.0743 123.348 42.473C123.322 43.5712 122.992 44.559 122.361 45.4363C120.559 46.075 119.703 45.4166 119.792 43.4608C119.751 42.1943 120.212 41.1735 121.175 40.3987Z" fill="#040404"/>
<path fill-rule="evenodd" clip-rule="evenodd" d="M65.0696 46.7212C66.191 46.6885 67.3105 46.7214 68.4281 46.82C69.2552 47.7011 69.1235 48.4256 68.033 48.9931C64.7158 49.4276 61.3904 49.7897 58.0565 50.0797C57.1009 50.245 56.4752 49.8829 56.1797 48.9931C56.2949 48.4994 56.5582 48.1043 56.9699 47.8078C59.6916 47.3937 62.3916 47.0316 65.0696 46.7212Z" fill="#040404"/>
<path fill-rule="evenodd" clip-rule="evenodd" d="M118.607 56.2039C119.385 56.146 120.142 56.2118 120.879 56.4015C120.257 60.5813 117.919 63.3141 113.866 64.6C112.059 64.9074 110.346 64.644 108.73 63.8098C106.465 62.1377 104.885 59.9646 103.988 57.2905C104.126 56.791 104.455 56.5607 104.976 56.599C105.914 56.8373 106.836 57.1336 107.742 57.488C111.49 57.8835 115.112 57.4556 118.607 56.2039Z" fill="#010101"/>
<path fill-rule="evenodd" clip-rule="evenodd" d="M128.288 66.8711C128.406 70.027 128.735 73.1879 129.275 76.3537C127.686 81.3765 125.875 86.3154 123.843 91.1703C123.123 91.9422 122.234 92.4361 121.176 92.652C117.402 93.8069 113.582 94.0044 109.717 93.2446C108.629 92.9698 107.608 92.5419 106.655 91.9605C106.721 88.6029 107.248 85.3103 108.236 82.0828C108.576 81.646 108.971 81.2509 109.421 80.8975C110.194 78.2552 110.49 75.5552 110.31 72.7977C115.522 73.2067 120.395 72.1201 124.929 69.5381C126.199 68.8263 127.319 67.9373 128.288 66.8711Z" fill="#FDFDFD"/>
<path fill-rule="evenodd" clip-rule="evenodd" d="M53.2164 69.2425C53.7573 69.1368 54.1196 69.3343 54.3029 69.8351C54.4341 71.6094 54.7304 73.3546 55.1919 75.0703C56.5576 78.0323 57.8417 81.0284 59.0442 84.0591C59.3303 85.3266 59.4949 86.6107 59.5381 87.9114C59.2934 89.8496 59.1946 91.7922 59.2418 93.7393C59.691 95.296 60.2507 96.8104 60.921 98.283C60.2803 99.8154 59.2926 101.1 57.9577 102.135C55.9274 103.711 53.6885 104.929 51.2408 105.79C50.4508 104.113 50.0557 102.368 50.0555 100.555C49.9368 100.238 49.7392 99.9745 49.4628 99.7647C47.4017 99.3316 45.3602 98.8047 43.3386 98.1842C38.599 96.0449 33.7919 94.0694 28.9171 92.2576C25.8891 90.7773 26.0208 90.0531 29.3123 90.0845C32.5163 91.1406 35.776 91.9638 39.0912 92.5539C40.2639 92.7641 40.659 92.303 40.2765 91.171C40.1778 91.0723 40.079 90.9735 39.9802 90.8747C36.1608 89.8869 32.3414 88.8992 28.522 87.9114C26.5561 87.3069 24.7451 86.4179 23.0893 85.2444C23.1601 84.6529 23.5223 84.2908 24.1758 84.1578C24.8343 84.0261 25.4929 84.0261 26.1514 84.1578C30.7248 85.408 35.2685 86.7579 39.7827 88.2077C40.937 88.04 41.2005 87.4801 40.5729 86.5285C35.7724 84.8406 30.8994 83.3919 25.9538 82.1823C24.9661 82.1165 23.9783 82.0505 22.9905 81.9847C22.4637 81.7214 22.0686 81.3263 21.8052 80.7994C23.1536 80.0349 24.6023 79.7715 26.1514 80.0092C27.4185 80.1969 28.6697 80.4602 29.9049 80.7994C33.1857 81.8271 36.4783 82.8149 39.7827 83.7627C41.3042 83.939 41.7651 83.3463 41.1655 81.9847C36.769 80.2338 32.357 78.5218 27.9294 76.8483C27.4026 76.585 27.4026 76.3214 27.9294 76.0581C29.9609 75.8742 31.9364 76.1375 33.856 76.8483C38.0432 78.3758 42.2576 79.8245 46.4995 81.1945C48.1216 81.9101 49.7021 81.8443 51.2408 80.997C51.659 80.655 51.9554 80.2269 52.1298 79.7129C51.9155 76.8896 51.8497 74.0579 51.9323 71.218C52.1197 70.377 52.5477 69.7184 53.2164 69.2425Z" fill="#FCFCFC"/>
<path fill-rule="evenodd" clip-rule="evenodd" d="M131.448 74.1807C134.511 76.0258 136.585 78.6598 137.671 82.0829C138.423 84.2388 139.115 86.4119 139.746 88.6022C137.309 89.535 134.806 90.2922 132.239 90.874C130.878 91.0414 130.45 91.7328 130.955 92.9484C132.519 93.9444 134.066 94.9652 135.597 96.0105C135.958 96.2303 136.123 96.5267 136.091 96.8995C128.487 107.67 119.992 117.745 110.606 127.125C112.156 122.61 113.869 118.132 115.743 113.692C120.396 103.945 124.742 94.0673 128.781 84.0584C129.545 81.9659 130.269 79.8586 130.955 77.7366C131.34 76.5817 131.505 75.3964 131.448 74.1807Z" fill="#FDFDFD"/>
<path fill-rule="evenodd" clip-rule="evenodd" d="M195.851 74.3781C196.579 74.225 197.073 74.4886 197.333 75.1684C197.505 78.3425 196.78 81.3058 195.16 84.0583C194.652 84.3163 194.191 84.6456 193.777 85.0461C193.552 85.6443 193.717 86.0724 194.271 86.3302C196.372 86.2889 198.479 86.2231 200.593 86.1326C204.543 85.0795 208.494 84.0257 212.446 82.9718C214.549 82.4318 216.656 82.3659 218.768 82.7742C213.369 84.2883 208.035 86.0005 202.766 87.9106C202.198 88.5134 202.264 89.0403 202.963 89.4911C203.424 89.6228 203.885 89.6228 204.346 89.4911C209.052 87.8565 213.793 86.342 218.57 84.9473C221.834 84.9754 222.097 85.8314 219.36 87.5155C218.24 87.5813 217.121 87.6473 216.002 87.7131C211.705 89.1234 207.424 90.5723 203.161 92.0593C202.634 92.5862 202.634 93.1128 203.161 93.6397C203.754 93.7715 204.346 93.7715 204.939 93.6397C208.361 92.6195 211.719 91.4342 215.014 90.0837C216.054 89.7908 217.108 89.5604 218.175 89.3923C218.683 89.383 219.078 89.5806 219.36 89.985C218.104 91.7651 216.393 92.6541 214.224 92.6519C210.273 93.969 206.322 95.2859 202.371 96.603C201.351 97.0305 201.153 97.6892 201.778 98.5786C202.356 98.8951 202.949 98.8951 203.556 98.5786C207.193 97.3004 210.815 95.9835 214.422 94.6275C215.209 94.5289 215.999 94.4959 216.792 94.5287C216.842 94.9884 216.71 95.3835 216.397 95.714C210.242 99.709 203.591 102.574 196.444 104.308C194.404 104.624 192.362 104.69 190.32 104.505C189.999 104.726 189.801 105.022 189.727 105.394C190.012 105.894 190.111 106.421 190.023 106.975C189.712 107.795 189.35 108.585 188.937 109.345C186.101 108.076 183.632 106.298 181.529 104.011C181.06 103.543 180.764 102.983 180.64 102.332C181.182 100.688 181.807 99.0748 182.516 97.492C182.658 94.2239 183.449 91.1288 184.887 88.207C186.303 86.2644 187.982 84.5852 189.925 83.1693C192.367 80.5574 194.343 77.6269 195.851 74.3781Z" fill="#FCFCFC"/>
<path fill-rule="evenodd" clip-rule="evenodd" d="M107.544 76.157C107.69 76.1311 107.822 76.1641 107.939 76.2557C107.146 78.3398 106.521 80.4801 106.063 82.6763C104.796 88.6985 103.742 94.7569 102.902 100.851C102.324 107.821 102.983 114.669 104.877 121.397C105.504 123.474 106.163 125.516 106.853 127.521C101.97 121.442 98.5453 114.594 96.5801 106.976C95.4789 103.133 94.5899 99.2811 93.9131 95.4186C96.5702 94.3585 99.1054 93.0744 101.519 91.5662C101.668 90.9742 101.504 90.4803 101.025 90.0846C99.545 89.162 98.0963 88.207 96.6789 87.22C100.316 83.5177 103.937 79.8299 107.544 76.157Z" fill="#FCFCFC"/>
<path fill-rule="evenodd" clip-rule="evenodd" d="M138.956 79.3174C143.732 80.6764 148.474 82.158 153.18 83.7624C154.755 84.4016 156.105 85.3564 157.229 86.6269C158.925 88.7652 160.374 91.0701 161.576 93.5413C164.374 99.7973 167.173 106.053 169.972 112.309C169.24 112.48 168.515 112.414 167.799 112.111C167.733 112.013 167.667 111.914 167.601 111.815C167.826 111.331 168.024 110.837 168.194 110.333C168.109 109.886 167.845 109.589 167.403 109.444C158.481 107.634 149.558 105.823 140.635 104.012C140.313 104.036 140.017 104.135 139.746 104.308C137.954 107.77 136.275 111.293 134.708 114.877C129.322 127.184 123.955 139.499 118.607 151.82C118.682 152.192 118.879 152.488 119.2 152.709C119.674 152.746 120.135 152.844 120.583 153.005C119.942 153.935 120.073 154.692 120.978 155.277C130.722 155.905 140.468 156.432 150.216 156.858C150.586 156.15 150.982 155.459 151.402 154.783C153.405 160.331 155.248 165.929 156.933 171.575C147.297 174.224 137.485 175.739 127.497 176.119C123.964 176.382 120.606 175.756 117.422 174.242C115.105 172.547 113.426 170.34 112.384 167.624C111.581 165.478 110.857 163.305 110.211 161.105C110.08 160.578 110.08 160.051 110.211 159.525C112.165 150.686 112.494 141.796 111.199 132.855C110.949 131.992 110.521 131.234 109.915 130.583C120.056 120.448 129.308 109.615 137.671 98.0851C138.114 97.4029 138.377 96.6787 138.462 95.912C137.141 94.5447 135.659 93.3924 134.017 92.4548C136.373 91.6912 138.744 90.9668 141.129 90.2817C141.845 89.8548 142.075 89.2291 141.82 88.4049C140.924 85.3466 139.97 82.3174 138.956 79.3174Z" fill="#FDFDFD"/>
<path fill-rule="evenodd" clip-rule="evenodd" d="M100.235 80.3044C100.381 80.2786 100.512 80.3115 100.63 80.4032C98.418 82.681 96.1461 84.8871 93.8142 87.0213C93.6085 87.6408 93.7733 88.1347 94.3081 88.503C95.6909 89.3262 97.0738 90.1492 98.4567 90.9724C96.3796 92.0437 94.2725 93.0645 92.135 94.0345C91.8086 94.3249 91.611 94.687 91.5423 95.121C92.5664 99.4184 93.653 103.699 94.8019 107.962C97.2502 117.508 101.992 125.673 109.026 132.459C109.814 135.635 110.176 138.861 110.112 142.139C110.041 150.841 108.691 159.336 106.063 167.624C105.512 169.119 104.854 170.568 104.087 171.97C102.969 173.6 101.422 174.555 99.4445 174.834C98.3249 174.966 97.2056 174.966 96.0861 174.834C92.0225 174.23 88.0057 173.407 84.0352 172.365C85.9936 164.678 88.1339 157.039 90.4557 149.449C92.2823 143.538 92.1508 137.678 90.0606 131.866C88.5254 128.796 87.2085 125.635 86.1095 122.384C84.7369 117.795 84.6711 113.185 85.912 108.555C87.0047 103.986 88.19 99.4427 89.468 94.9235C89.6865 94.2079 89.7523 93.4835 89.6655 92.7504C89.0729 91.9602 88.4802 91.9602 87.8875 92.7504C86.7988 97.1709 85.6795 101.583 84.5291 105.987C83.4998 109.808 83.0389 113.693 83.1462 117.642C83.5727 121.292 84.5605 124.783 86.1095 128.113C86.2413 128.376 86.2413 128.64 86.1095 128.903C83.3355 133.06 79.9443 136.649 75.9355 139.67C70.1092 142.6 65.0058 141.646 60.625 136.805C58.4975 133.936 56.7195 130.841 55.291 127.52C52.6432 121.256 49.9762 115 47.29 108.752C52.6292 107.943 57.2057 105.638 61.0201 101.838C61.8921 100.819 62.6165 99.6998 63.1932 98.4795C65.9149 105.7 69.01 112.746 72.4783 119.618C73.6897 123.001 74.2823 126.491 74.2563 130.088C74.3359 130.827 74.698 131.025 75.3428 130.681C75.6261 130.341 75.7907 129.946 75.8367 129.496C75.8697 128.771 75.9025 128.047 75.9355 127.322C75.8177 125.323 75.5872 123.347 75.244 121.396C76.2579 122.863 77.1469 124.41 77.911 126.038C78.1647 126.173 78.3952 126.14 78.6025 125.94C78.8834 125.44 78.9492 124.913 78.8 124.359C77.9282 121.566 76.282 119.327 73.8611 117.642C73.2592 116.405 72.6337 115.187 71.9844 113.988C75.8709 105.458 79.9865 97.0616 84.3315 88.7993C85.0629 87.4741 86.0177 86.3218 87.1961 85.3421C88.4664 84.641 89.7833 84.0483 91.1472 83.5641C94.2184 82.5299 97.2475 81.4433 100.235 80.3044Z" fill="#FDFDFD"/>
<path fill-rule="evenodd" clip-rule="evenodd" d="M151.796 86.8252C152.681 86.8888 152.977 87.3499 152.685 88.2081C150.541 92.4324 148.894 96.8444 147.747 101.444C147.335 101.945 146.94 101.945 146.561 101.444C146.375 99.9661 146.507 98.5175 146.956 97.098C147.91 94.1053 149.095 91.2077 150.512 88.4056C150.908 87.8464 151.336 87.3197 151.796 86.8252Z" fill="#050505"/>
<path fill-rule="evenodd" clip-rule="evenodd" d="M44.9196 90.3801C48.1121 90.0158 50.8449 90.9376 53.1181 93.1459C53.5543 93.7492 53.7519 94.4077 53.7108 95.1214C53.487 95.4595 53.1906 95.5582 52.8218 95.4178C51.6118 93.8257 50.0313 92.8379 48.0805 92.4544C46.1958 92.3622 44.319 92.461 42.4502 92.7508C41.2281 92.6439 40.9318 92.084 41.5612 91.0716C42.6979 90.7954 43.8175 90.5648 44.9196 90.3801Z" fill="#090809"/>
<path fill-rule="evenodd" clip-rule="evenodd" d="M105.766 93.7393C109.514 95.6036 113.465 96.1635 117.619 95.4185C119.128 95.1648 120.61 94.8027 122.064 94.3319C122.163 94.3977 122.262 94.4637 122.361 94.5295C117.295 104.858 112.718 115.394 108.631 126.138C104.584 115.623 103.629 104.823 105.766 93.7393Z" fill="#FDFDFD"/>
<path fill-rule="evenodd" clip-rule="evenodd" d="M191.9 95.5178C193.721 95.4127 195.499 95.6433 197.234 96.2093C198.14 96.4507 198.567 97.0106 198.518 97.8885C198.296 98.1738 197.999 98.3053 197.629 98.2836C195.222 97.3768 192.785 97.2781 190.32 97.9873C189.423 98.5343 188.501 99.0282 187.554 99.4689C187.182 99.2333 187.083 98.9041 187.257 98.4812C187.432 97.9671 187.728 97.539 188.146 97.1971C189.32 96.4116 190.571 95.8519 191.9 95.5178Z" fill="#060606"/>
<path fill-rule="evenodd" clip-rule="evenodd" d="M178.467 101.247C178.375 102.197 178.605 103.119 179.158 104.013C181.227 107.068 183.96 109.34 187.357 110.828C189.344 111.634 191.386 112.259 193.481 112.705C189.958 119.356 186.435 126.007 182.912 132.658C181.285 135.669 179.276 138.402 176.886 140.857C172.973 143.993 168.956 144.125 164.835 141.252C163.228 140.072 161.779 138.722 160.489 137.202C164.607 129.492 168.821 121.854 173.133 114.286C172.884 113.758 172.719 113.231 172.639 112.705C174.638 108.905 176.58 105.086 178.467 101.247Z" fill="#FDFEFD"/>
<path fill-rule="evenodd" clip-rule="evenodd" d="M106.162 135.818C108.667 135.788 109.556 136.973 108.829 139.374C107.491 141.003 106.042 141.135 104.483 139.769C103.806 137.898 104.366 136.581 106.162 135.818Z" fill="#030303"/>
</g>
<path d="M1 173.075L81.9184 165.654V173.075H83.7915L81.9184 195.552H159.091L156.094 172.7L159.091 171.951L156.094 162.283L241.133 150.598V225.366H1V173.075Z" fill="black" stroke="black" stroke-width="0.749245"/>
<defs>
<clipPath id="clip0_2067_312">
<rect width="202.296" height="202.296" fill="white" transform="translate(19.7314)"/>
</clipPath>
</defs>
</svg>
