<svg width="265" height="25" viewBox="0 0 265 25" fill="none" xmlns="http://www.w3.org/2000/svg">
<path d="M1.93127 19.0929C45.5353 19.0929 89.1393 19.2826 132.898 19.8516C154.236 20.0413 175.574 20.8 196.912 20.8C207.272 20.8 217.787 20.8 228.146 21.7483C233.094 22.1276 237.888 22.8863 242.681 23.6449C248.712 24.5932 252.886 23.8345 258.917 23.0759C264.019 22.5069 266.184 14.7307 261.545 11.1271C257.061 7.52346 254.123 4.48882 248.712 3.35084C243.764 2.21285 238.816 1.83353 233.713 1.4542C223.353 0.695543 212.839 0.885195 202.479 1.26452C180.213 2.02318 158.102 3.54049 135.836 5.0578C91.1495 7.90276 46.4631 11.1271 1.93127 14.7307C-0.388089 14.7307 -0.542713 19.0929 1.93127 19.0929Z" fill="#0A85D1"/>
</svg>
